o cube
v 11.627218 -12.033856 -12.395438
v 11.627218 -12.033856 11.689285
v -12.457508 -12.033856 11.689283
v -12.457501 -12.033856 -12.395444
v 11.627224 12.050868 -12.395432
v 11.627211 12.050868 11.689293
v -12.457511 12.050868 11.689281
v -12.457505 12.050868 -12.395439
vn 0.000000 -1.000000 0.000000
vn 0.000000 1.000000 0.000000
vn 1.000000 -0.000000 0.000000
vn -0.000000 -0.000000 1.000000
vn -1.000000 -0.000000 -0.000000
vn 0.000000 0.000000 -1.000000
f 1/0/1 2/0/1 3/0/1 4/0/1
f 5/0/2 8/0/2 7/0/2 6/0/2
f 1/0/3 5/0/3 6/0/3 2/0/3
f 2/0/4 6/0/4 7/0/4 3/0/4
f 3/0/5 7/0/5 8/0/5 4/0/5
f 5/0/6 1/0/6 4/0/6 8/0/6
